<?xml version="1.0" encoding="utf-8"?>
<!-- Generator: Adobe Illustrator 27.0.1, SVG Export Plug-In . SVG Version: 6.00 Build 0)  -->
<svg version="1.1" id="Layer_1" xmlns="http://www.w3.org/2000/svg" xmlns:xlink="http://www.w3.org/1999/xlink" x="0px" y="0px"
	 viewBox="0 0 833.9 89.3" style="enable-background:new 0 0 833.9 89.3;" xml:space="preserve">
<style type="text/css">
	.st0{fill:#00FF2B;}
</style>
<g>
	<path class="st0" d="M5,11.9c-0.5-0.3-0.8-0.7-0.8-1.1c0-0.4,0.7-0.8,2.2-1.1c1.5-0.3,3.3-0.5,5.4-0.5c2.2,0,4,0.2,5.4,0.5
		c1.5,0.3,2.2,0.7,2.2,1.1c0,0.4,0.3,0.8,0.9,1.1c0.6,0.3,1.2,0.5,2,0.5c0.8,0,1.5,0.3,2.2,1c0.7,0.7,1.7,2.4,3.2,5.1
		c1.4,2.8,3.1,6.3,4.9,10.5c1.9,4.2,4.6,10.5,8.2,18.8c1,2.1,1.9,4,2.8,5.7c0.9,1.7,1.6,3,2.3,3.9c0.6,0.9,1,1.3,1.2,1.1
		c0.7-0.8,4.6-9.2,11.5-25.3c4-9.2,6.9-15.5,8.8-18.9c1.9-3.4,3.3-5.1,4.3-5.1s1.6,0.7,2,2c0.6,2.3,0.9,13.1,0.9,32.5v34.3h-7.7
		c-4.7,0-7.2-0.5-7.6-1.6c-0.2-0.8,1.2-1.4,4.3-1.7l4.1-0.5l0.7-48.8L56.9,51.1c-7.6,17.3-11.8,26.1-12.7,26.4
		c-0.4,0.2-1.9-2.3-4.3-7.3c-2.5-5-5.3-11.1-8.4-18.2L20.2,26l-0.7,58h-7.8c-4.8,0-7.2-0.5-7.1-1.6c0-0.1,0-0.2,0-0.4
		c0.3-1,1.5-1.8,3.7-2.4c2.1-0.6,3.5-1.4,4-2.2c0.7-1.2,1.1-11.8,1.1-31.6c0-17.1-0.5-27.1-1.5-30.1c-1.2-2.1-2.9-3.2-5-3.3
		C6.2,12.3,5.5,12.2,5,11.9z"/>
	<path class="st0" d="M111,16.1c1.2-3.4,3.1-2.6,5.5,2.3c0.3,0.7,0.7,1.6,1.1,2.6c3.3,7.6,5.2,12.8,5.8,15.5
		c0.6,2.7,0.4,4.8-0.5,6.5c-0.9,1.5-0.9,3.2-0.1,5.1c0.9,1.9,2.3,4.6,4.4,8.2c2.1,3.5,3.6,7.1,4.7,10.8c0.6,1.8,1.2,3.4,2,4.9
		c0.8,1.5,1.4,2.3,2,2.4c2.8,1.1,3,2,0.7,2.8c-1.7,0.5-4.4,0.7-7.9,0.7c-6.1,0-9.2-0.6-9.3-1.7c-0.1-0.6,1-1.2,3.2-1.7
		c2-0.6,2.9-1.7,2.9-3.4c0-1.7-0.9-4.7-2.8-9.1l-3-7H95.7l-2.6,7.3c-1.2,3.3-2,5.7-2.2,7.1c-0.2,1.4-0.1,2.5,0.3,3.1
		c0.4,0.7,1.5,1.2,3.1,1.6c2.8,0.7,4,1.4,3.8,2.1c-0.5,1.1-4,1.6-10.6,1.6c-7.2,0-10.7-0.3-10.7-0.9s1.2-1.8,3.5-3.7
		c1.9-1.5,4.8-6.8,8.7-16c3.9-9.2,7.6-18,11.2-26.3c3.6-8.3,6-12.5,7.3-12.5c0.7,0,1.3-0.2,2-0.7C110.3,17.2,110.7,16.7,111,16.1z
		 M118,49.9c0-0.4-1.5-4.3-4.6-11.8c-3.1-7.5-4.8-11.3-5.1-11.6c-0.1-0.2-0.5,0.5-1.2,2c-0.7,1.5-1.6,3.4-2.5,5.6
		c-0.9,2.2-1.9,4.5-2.7,6.7c-0.9,2.2-1.7,4.2-2.4,5.9c-0.7,1.7-1,2.5-1,2.6c-0.1,0.7,3.1,1.1,9.5,1.1C114.7,50.4,118,50.2,118,49.9z
		"/>
	<path class="st0" d="M140.6,10.6c-0.3-0.4,0-0.7,0.9-0.9c1.3-0.4,3.5-0.6,6.5-0.6h8.7v22.2c0,14.7,0.5,22.1,1.5,22.1
		c0.4,0,0.8,0.9,1.2,2.6c0.4,1.7,0.6,3.8,0.7,6.2l0.5,8.8h13.3c7.6,0,11.8,0.3,12.7,1c0.5,0.3,0.7,1.1,0.7,2.4
		c0,1.5-0.4,2.4-1.3,2.7c-1.3,0.5-7.2,0.7-17.7,0.7h-19.2l-0.4-32.5c-0.2-18.6-0.6-29-1.2-31c-0.4-1.1-1.1-1.7-2.2-2
		C143.1,12.1,141.6,11.5,140.6,10.6z"/>
	<path class="st0" d="M207.6,12.1c5.2-2.4,9.4-3.8,12.6-4.1c3.2-0.3,6.8,0.4,10.7,2.1c2.6,1.1,4.3,1.6,5.1,1.5
		c0.8,0,1.6-0.6,2.5-1.8c1.7-2.4,2.9-2.3,3.7,0.4c0.3,1.3,0.6,3.4,0.9,6.2c0.3,3,0.4,5.1,0.1,6.2c-0.2,1.1-0.9,1.9-1.8,2.2
		c-1.6,0.7-3.2-0.5-4.6-3.5c-1.7-3.3-4.4-5.7-8-7.3c-3.6-1.6-7.5-2.1-11.5-1.5c-4.1,0.6-7.5,2.3-10.2,4.9c-3,2.9-5.1,6.4-6.3,10.4
		c-1.2,4-1.8,9.5-1.8,16.3c0,9.8,2,17,6,21.8c4,4.8,10.1,7.2,18.2,7.2c3.3,0,5.6-0.4,7.1-1.2c1.5-0.8,3.8-2.7,6.8-5.7
		c4.7-4.8,7.2-6.5,7.3-5c0.1,0.9-0.9,2.8-2.9,5.9c-2.5,3.7-5.2,6.4-8.1,8.1c-2.9,1.7-6.6,2.9-11,3.5c-5.5,0.7-9.5,0.5-12-0.4
		c-2.5-0.9-4.6-3.2-6.3-6.6c-2-4-3.9-5.8-5.7-5.4c-1.8,0.4-3.7-0.8-5.9-3.5c-1.5-2-2.3-3.8-2.6-5.7c-0.2-1.8-0.1-5.9,0.5-12.3
		c0.8-10,2.4-17.3,4.9-21.9C197.5,18.6,201.7,14.9,207.6,12.1z"/>
	<path class="st0" d="M250.9,19.5c3.4-3.7,6.8-6,10.1-7.1c3.3-1.1,7.6-1.5,12.7-1.2c5.5,0.2,9.9,1.3,13.1,3.1c3.2,1.8,5,4.3,5.3,7.5
		c0.4,2.8,1.6,4.1,3.5,4.1c1.2,0,2,0.7,2.3,2c0.4,1.7,0.6,7.9,0.6,18.5V67l-4.6,5.4c-5,5.6-11.3,8.8-19.1,9.7
		c-7.8,0.9-14.7-0.9-20.9-5.2l-6.3-4.5l-1-48.3L250.9,19.5z M280.3,17.6c-4.7-2.4-9.2-2.9-13.5-1.5c-4.3,1.5-7.9,4.8-10.7,9.9
		c-2.7,4.8-4,11.3-4.1,19.6c0,8.3,1.2,15.1,3.8,20.6c1.8,3.7,4.2,6.5,7.1,8.5c3,2,6,3.1,9,3.1c3,0,6-0.9,9-2.9c3-2,5.3-4.8,7-8.4
		c1.2-2.4,2.1-5.1,2.5-7.9c0.4-2.8,0.7-6.8,0.7-12C291,30.9,287.5,21.3,280.3,17.6z"/>
	<path class="st0" d="M301.2,10.6c-0.3-0.4,0-0.7,0.9-0.9c1.3-0.4,3.5-0.6,6.5-0.6h8.7v22.2c0,14.7,0.5,22.1,1.5,22.1
		c0.4,0,0.8,0.9,1.2,2.6c0.4,1.7,0.6,3.8,0.7,6.2l0.5,8.8h13.3c7.6,0,11.8,0.3,12.7,1c0.5,0.3,0.7,1.1,0.7,2.4
		c0,1.5-0.4,2.4-1.3,2.7c-1.3,0.5-7.2,0.7-17.7,0.7h-19.2l-0.4-32.5c-0.2-18.6-0.6-29-1.2-31c-0.4-1.1-1.1-1.7-2.2-2
		C303.6,12.1,302.1,11.5,301.2,10.6z"/>
	<path class="st0" d="M350.9,11.9c-0.5-0.3-0.8-0.7-0.8-1.1c0-0.4,0.7-0.8,2.2-1.1c1.5-0.3,3.3-0.5,5.4-0.5c2.2,0,4,0.2,5.4,0.5
		c1.5,0.3,2.2,0.7,2.2,1.1c0,0.4,0.3,0.8,0.9,1.1c0.6,0.3,1.2,0.5,2,0.5c1.1,0,2.6,1.6,4.5,4.9c1.8,3.3,4.7,9.5,8.7,18.7
		c1.9,4.2,3.7,8.1,5.4,11.7c1.7,3.6,3.1,6.4,4.2,8.4c1.1,2,1.7,2.9,1.9,2.9c0.7-0.4,4.6-8.8,11.5-25.1c4-9.5,6.9-16,8.7-19.4
		s3.3-5.1,4.5-5.1c1,0,1.6,0.7,2,2c0.6,2.3,0.9,13.1,0.9,32.5v34.3h-7.7c-4.7,0-7.2-0.5-7.6-1.6c-0.2-0.8,1.2-1.4,4.3-1.7l4.1-0.5
		l0.7-48.8l-11.3,25.9c-7.6,17.3-11.8,26.1-12.7,26.4c-0.4,0.2-1.9-2.3-4.3-7.3c-2.5-5-5.3-11.1-8.4-18.2l-11.3-26l-0.7,58h-7.8
		c-4.8,0-7.2-0.5-7.1-1.6c0-0.1,0-0.2,0-0.4c0.3-1,1.5-1.8,3.7-2.4c2.1-0.6,3.5-1.4,4-2.2c0.7-1.2,1.1-11.8,1.1-31.6
		c0-17.1-0.5-27.1-1.5-30.1c-1.2-2.1-2.9-3.2-5-3.3C352,12.3,351.4,12.2,350.9,11.9z"/>
	<path class="st0" d="M477.1,13.3c1.5-2,3-3.1,4.6-3.5c1.6-0.4,5.5-0.6,11.8-0.6c8.9,0,15.5,1,19.8,3c4.3,2,6.5,3.3,6.5,3.8
		c0,0.6,0.8,5.7,2.3,15.4c1.2,7.2,1.7,12.1,1.6,14.5c-0.2,2.4-1.3,7-3.3,13.7l-4.1,13.5l-7,2.4c-1.9,0.7-4.6,1.2-8.1,1.6
		c-3.5,0.4-6.9,0.7-9.9,0.7H480v-16c0-9.1-0.3-14.2-1-15.2c-0.4-0.6-1.1-0.9-2.1-0.9c-1.4,0-2.2-0.6-2.6-1.7
		c-0.3-1.4-0.5-5.5-0.5-12.4c0-6,0.2-10.1,0.5-12.4C474.8,17,475.7,15,477.1,13.3z M507.1,18c-1.1-0.8-2.6-1.5-4.7-2.2
		c-2.1-0.6-4-1.1-5.9-1.2c-4.7-0.3-7.6-0.3-8.5,0.1c-1.8,0.8-2.8,3.7-3.2,8.5c-0.1,2.4-0.1,9.3-0.1,20.5v28.1l3.9,1
		c4.6,1.1,9.1,0.8,13.8-1.2c4.6-1.9,8.6-5.1,11.8-9.5c1.4-1.8,2.3-3.8,2.6-6.1c0.4-2.3,0.5-6.4,0.5-12.4c0-7.7-0.6-13.1-1.8-16.2
		C514.3,24.4,511.5,21.2,507.1,18z"/>
	<path class="st0" d="M560.2,16.1c1.2-3.4,3-2.6,5.5,2.3c0.3,0.7,0.7,1.6,1.1,2.6c3.3,7.6,5.2,12.8,5.8,15.5
		c0.6,2.7,0.4,4.8-0.5,6.5c-0.9,1.5-0.9,3.2-0.1,5.1c0.9,1.9,2.3,4.6,4.4,8.2c2.1,3.5,3.6,7.1,4.7,10.8c0.6,1.8,1.2,3.4,2,4.9
		c0.8,1.5,1.4,2.3,2,2.4c2.8,1.1,3,2,0.7,2.8c-1.7,0.5-4.4,0.7-7.9,0.7c-6.1,0-9.2-0.6-9.3-1.7c-0.1-0.6,1-1.2,3.2-1.7
		c2-0.6,2.9-1.7,2.9-3.4c0-1.7-0.9-4.7-2.8-9.1l-3-7h-23.9l-2.6,7.3c-1.2,3.3-2,5.7-2.2,7.1c-0.2,1.4-0.1,2.5,0.3,3.1
		c0.4,0.7,1.5,1.2,3.1,1.6c2.8,0.7,4,1.4,3.8,2.1c-0.5,1.1-4,1.6-10.6,1.6c-7.2,0-10.7-0.3-10.7-0.9s1.2-1.8,3.5-3.7
		c1.9-1.5,4.8-6.8,8.7-16c3.9-9.2,7.6-18,11.2-26.3c3.6-8.3,6-12.5,7.3-12.5c0.7,0,1.3-0.2,2-0.7C559.5,17.2,559.9,16.7,560.2,16.1z
		 M567.2,49.9c0-0.4-1.5-4.3-4.6-11.8c-3.1-7.5-4.8-11.3-5.1-11.6c-0.1-0.2-0.5,0.5-1.2,2c-0.7,1.5-1.6,3.4-2.5,5.6
		c-0.9,2.2-1.9,4.5-2.7,6.7c-0.9,2.2-1.7,4.2-2.4,5.9c-0.7,1.7-1,2.5-1,2.6c-0.1,0.7,3.1,1.1,9.5,1.1
		C563.9,50.4,567.2,50.2,567.2,49.9z"/>
	<path class="st0" d="M603.4,32.8V9.2h7.7c2.1,0,3.9,0.2,5.4,0.5c1.5,0.3,2.2,0.7,2.2,1.1c0,0.4-0.3,0.8-0.8,1.1
		c-0.5,0.3-1.2,0.5-1.9,0.5c-2.5,0-4.2,1-5.1,3.1c-0.9,2.1-1.3,6.2-1.3,12.4v11.8H639l-0.9-15.1c-0.2-3.9-0.3-6.7-0.3-8.5
		c0-1.7,0-3.2,0.2-4.4c0.2-1.2,0.4-1.9,0.7-2.1c0.3-0.2,0.8-0.4,1.5-0.4c1.1,0,1.7,0.7,2,2c0.6,2.3,0.9,13.1,0.9,32.5v34.3h-4.5
		c-2.6,0-4-0.3-4.3-1c-0.3-0.7,0.4-2.1,2.1-4.3c1.5-1.9,2.2-6.8,2.2-14.8v-12h-29v13.1c0,5.1,0.2,8.6,0.5,10.6
		c0.3,1.9,0.9,3,1.8,3.4c0.7,0.2,1.2,0.7,1.6,1.3c0.4,0.6,0.7,1.2,0.7,1.8c0,0.8-0.9,1.4-2.6,1.6c-1.7,0.3-4.9,0.4-9.6,0.4
		c-8.3,0-12.4-0.6-12.2-1.8c0.1-0.6,1.6-1.2,4.5-1.8c2.3-0.4,3.6-1.1,4-2c0.4-0.9,0.6-3.3,0.6-7.3c0-3.3,0.2-5.5,0.5-6.6
		c0.3-1.2,0.9-1.8,1.8-1.8c1,0,1.6-1.4,1.8-4.3C603.2,49.3,603.4,42.8,603.4,32.8z"/>
	<path class="st0" d="M645.6,10.6c-0.3-0.4,0-0.7,0.9-0.9c1.3-0.4,3.5-0.6,6.5-0.6h8.7v22.2c0,14.7,0.5,22.1,1.5,22.1
		c0.4,0,0.8,0.9,1.2,2.6s0.6,3.8,0.7,6.2l0.5,8.8h13.3c7.6,0,11.8,0.3,12.7,1c0.5,0.3,0.7,1.1,0.7,2.4c0,1.5-0.4,2.4-1.3,2.7
		c-1.3,0.5-7.2,0.7-17.7,0.7h-19.2l-0.4-32.5c-0.2-18.6-0.6-29-1.2-31c-0.4-1.1-1.1-1.7-2.2-2C648,12.1,646.5,11.5,645.6,10.6z"/>
	<path class="st0" d="M703.6,10c0-0.6,0.3-1.2,0.9-1.6c0.6-0.4,1.3-0.7,2.1-0.7c1.1,0,1.9,0.6,2.2,1.8c0.6,2.1,0.9,12.9,0.9,32.5
		c0,14.7-0.1,24.1-0.4,28.2c-0.3,4.1-0.9,6.1-1.9,6.1c-0.6,0-1.1,0.2-1.5,0.7c-0.4,0.5-0.7,1-0.7,1.6c0,1.5-1.8,2.3-5.4,2.3
		c-1.5,0-2.7-0.1-3.8-0.4c-1.1-0.3-1.6-0.6-1.6-1c0-1.1,1-1.6,3-1.6c1.3,0,2.3-0.4,3.1-1.3c0.7-0.9,1.3-2.5,1.8-5.1
		c0.5-2.5,0.8-5.8,1-9.7c0.2-3.9,0.2-9.3,0.2-16.2c0-6.7-0.1-11.9-0.2-15.6c-0.2-3.7-0.5-6.7-0.9-9.1c-0.4-2.4-1.1-3.9-1.8-4.6
		c-0.8-0.7-1.8-1.1-3.1-1.1c-0.8,0-1.5-0.1-2.1-0.4c-0.6-0.3-0.9-0.6-0.9-1c0-0.4,0.4-0.8,1.3-1c0.9-0.3,2-0.4,3.3-0.4
		C702.1,12.3,703.6,11.6,703.6,10z"/>
	<path class="st0" d="M719.7,41.1V7.7h3.5c1.4,0,3.6,1.7,6.6,5c3.1,3.3,8.1,9.6,15.1,18.7l18.3,23.8l0.4-20.3
		c0.3-13.4,0.2-20.8-0.2-22.2c-0.2-0.5-0.7-0.9-1.5-1.3c-0.7-0.4-1.5-0.6-2.3-0.6c-2,0-3.4-0.5-4-1.6c-0.3-0.6,0.4-1,2.1-1.2
		c1.1-0.2,2.4-0.2,4-0.2h6.8v35.1c0,23.3-0.1,35-0.4,35c-0.3,0-7.3-8.8-20.9-26.5l-20.5-26.6l-0.5,24.3c0,6.3,0,11.5,0.1,15.4
		c0,3.9,0.3,7,0.7,9.2c0.4,2.2,1.1,3.7,1.8,4.5c0.8,0.8,1.8,1.2,3.1,1.2c2.1,0,3.2,1,3.2,2.9c0,1.5-0.6,2.4-1.8,2.7
		c-1.2,0.3-4.4,0.5-9.6,0.5c-5.2,0-8.4-0.2-9.6-0.5c-1.2-0.3-1.8-1.2-1.8-2.7c0-2,1-2.9,2.9-2.9c0.7,0,1.5-0.3,2.3-0.8
		c0.8-0.5,1.3-1.1,1.5-1.6C719.4,75.3,719.7,63.3,719.7,41.1z"/>
	<path class="st0" d="M814.8,4.8c0.9-2.4,1.8-2.4,2.8,0c0.5,1.3,0.9,3.1,1.2,5.5c1.3,9.6,1.1,14.4-0.5,14.5c-0.8,0-1.9-1.6-3.2-4.9
		c-1.9-4.4-5.6-7.2-11.3-8.5c-5.7-1.3-10.9-0.5-15.7,2.4c-3.7,2.3-6.6,6-8.7,11c-2,5.1-3.1,10.4-3.2,15.9
		c-0.1,5.5,0.9,10.9,2.8,16.1c2,5.2,4.8,9.2,8.4,11.8c2.9,2,6.3,3.4,10.2,4c3.9,0.7,7.3,0.4,10.1-0.7l4.3-1.7l-0.4-13.3
		c-0.2-6.1-0.6-9.9-1-11.5c-0.4-1.5-1.4-2.7-3-3.4c-3.5-1.5-4.2-2.6-2.2-3.3c0.9-0.3,2.3-0.5,4.1-0.5c3.6,0,5.4-0.8,5.4-2.3
		c0-0.8,0.5-1.4,1.6-1.8c1.1-0.4,2.8-0.5,5.2-0.5c2,0,3.6,0.2,4.9,0.5c1.3,0.3,2,0.7,2,1.1c0,0.4-0.2,0.8-0.7,1.1
		c-0.5,0.3-1,0.5-1.6,0.5c-1.9,0-3.2,1.4-4.1,4.2c-0.9,2.8-1.3,7.3-1.4,13.6c-0.1,7.2-0.9,12.5-2.4,15.8c-1.5,3.3-4.3,5.4-8.3,6.4
		c-3.6,1-8.5,1.2-14.6,0.6c-6.2-0.6-10.7-1.6-13.7-3c-2.1-1.1-3.6-2.4-4.3-3.7c-0.8-1.3-1.6-4-2.5-8c-1.2-6.1-2.2-9.1-3-9.1
		c-0.7,0-1-2.1-1.2-6.2s0-8.8,0.5-13.9c0.4-5.1,1-9,1.8-11.6c1.7-5.7,4.5-9.6,8.2-11.7c3.8-2.1,10.1-3.2,19.1-3.4
		C809.7,6.6,814.4,5.9,814.8,4.8z"/>
</g>
</svg>
